# xmcd CD database file
#
# Track frame offsets:
#	150
#	11683
#	30901
#	47790
#	66269
#	85116
#	99814
#	110467
#	130300
#	152192
#	166338
#	179958
#
# Disc length: 2613 seconds
#
# Revision: 1
# Processed by: cddbd v1.5.2PL0 Copyright (c) Steve Scherf et al.
# Submitted via: CDex 1.51
#
DISCID=970a330c
DTITLE=Elaine Silver - The Art of Peace
DYEAR=2006
DGENRE=New Age
TTITLE0=The Light of the Giving God
TTITLE1=There Is Only Love
TTITLE2=Soul To Soul
TTITLE3=The Art of Peace
TTITLE4=Walls and Windows
TTITLE5=In God's Hands
TTITLE6=Shekinah
TTITLE7=I Am
TTITLE8=Oh My Love
TTITLE9=This Thing Called Life
TTITLE10=Have No Fear
TTITLE11=Spirit Divine
EXTD=YEAR: 2006
EXTT0=
EXTT1=
EXTT2=
EXTT3=
EXTT4=
EXTT5=
EXTT6=
EXTT7=
EXTT8=
EXTT9=
EXTT10=
EXTT11=
PLAYORDER=
